<svg width="90" height="90" viewBox="0 0 90 90" fill="none" xmlns="http://www.w3.org/2000/svg">
<g clip-path="url(#clip0_2_193)">
<path d="M57.1237 20.58C53.9625 20.4375 53.01 20.4075 45 20.4075C36.99 20.4075 36.0412 20.4375 32.88 20.58C24.7425 20.9513 20.9513 24.8063 20.5837 32.8763C20.4375 36.0413 20.4037 36.99 20.4037 45C20.4037 53.01 20.4375 53.9587 20.58 57.1237C20.9513 65.1787 24.7275 69.0487 32.8763 69.42C36.0375 69.5625 36.99 69.5963 45 69.5963C53.0138 69.5963 53.9625 69.5663 57.1237 69.4238C65.2612 69.0525 69.0487 65.19 69.42 57.1275C69.5625 53.9625 69.5925 53.0138 69.5925 45.0037C69.5925 36.9938 69.5625 36.045 69.42 32.8838C69.0487 24.81 65.2537 20.9513 57.1237 20.58ZM45 60.405C36.4912 60.405 29.595 53.5088 29.595 45C29.595 36.4912 36.495 29.595 45 29.595C53.505 29.595 60.405 36.4912 60.405 45C60.405 53.5088 53.5088 60.405 45 60.405ZM61.0163 32.5875C59.0288 32.5875 57.4162 30.975 57.4162 28.9875C57.4162 27 59.0288 25.3875 61.0163 25.3875C63.0037 25.3875 64.6163 27 64.6163 28.9875C64.6163 30.975 63.0037 32.5875 61.0163 32.5875ZM55.0013 45C55.0013 50.5238 50.5238 55.0013 45 55.0013C39.4762 55.0013 34.9987 50.5238 34.9987 45C34.9987 39.4762 39.4762 34.9987 45 34.9987C50.5238 34.9987 55.0013 39.4762 55.0013 45ZM71.25 0H18.75C8.39625 0 0 8.39625 0 18.75V71.25C0 81.6038 8.39625 90 18.75 90H71.25C81.6075 90 90 81.6038 90 71.25V18.75C90 8.39625 81.6075 0 71.25 0V0ZM74.82 57.3675C74.325 68.2763 68.2537 74.3213 57.3713 74.82C54.1688 74.9662 53.1488 75 45 75C36.8512 75 35.835 74.9662 32.6325 74.82C21.7275 74.3213 15.6825 68.265 15.18 57.3675C15.0337 54.1688 15 53.1488 15 45C15 36.855 15.0337 35.8312 15.18 32.6325C15.6825 21.7275 21.735 15.6787 32.6325 15.1837C35.835 15.0337 36.8512 15 45 15C53.1488 15 54.1688 15.0337 57.3713 15.18C68.2763 15.6787 74.3325 21.7463 74.82 32.6287C74.9662 35.8312 75 36.855 75 45C75 53.1488 74.9662 54.1688 74.82 57.3675Z" fill="white"/>
</g>
<defs>
<clipPath id="clip0_2_193">
<rect width="90" height="90" fill="white"/>
</clipPath>
</defs>
</svg>
