<svg width="90" height="90" viewBox="0 0 90 90" fill="none" xmlns="http://www.w3.org/2000/svg">
<g clip-path="url(#clip0_2_195)">
<path d="M71.25 0H18.75C8.39625 0 0 8.39625 0 18.75V71.25C0 81.6038 8.39625 90 18.75 90H71.25C81.6075 90 90 81.6038 90 71.25V18.75C90 8.39625 81.6075 0 71.25 0ZM70.7288 34.6388C71.5125 51.9525 58.6012 71.2575 35.7412 71.2575C28.7887 71.2575 22.32 69.2213 16.8713 65.7262C23.4037 66.495 29.9213 64.6837 35.0963 60.63C29.7075 60.5287 25.1625 56.97 23.5988 52.08C25.53 52.4475 27.4275 52.3387 29.1562 51.87C23.235 50.6812 19.1513 45.3487 19.2825 39.645C20.94 40.5675 22.8412 41.1225 24.855 41.1862C19.3762 37.5225 17.8237 30.285 21.045 24.75C27.1162 32.1975 36.1875 37.0987 46.4175 37.6125C44.6213 29.9137 50.4675 22.5 58.4137 22.5C61.95 22.5 65.1525 23.9925 67.395 26.3888C70.2 25.8375 72.8363 24.8138 75.2175 23.4038C74.295 26.28 72.345 28.6912 69.8063 30.2138C72.2962 29.9137 74.67 29.2537 76.875 28.275C75.2288 30.735 73.14 32.9025 70.7288 34.6388Z" fill="white"/>
</g>
<defs>
<clipPath id="clip0_2_195">
<rect width="90" height="90" fill="white"/>
</clipPath>
</defs>
</svg>
