<svg width="90" height="90" viewBox="0 0 90 90" fill="none" xmlns="http://www.w3.org/2000/svg">
<g clip-path="url(#clip0_2_189)">
<path d="M37.5 34.9987L57.4987 44.9813L37.5 55.0013V34.9987ZM90 18.75V71.25C90 81.6038 81.6075 90 71.25 90H18.75C8.39625 90 0 81.6038 0 71.25V18.75C0 8.39625 8.39625 0 18.75 0H71.25C81.6075 0 90 8.39625 90 18.75ZM75 45C74.925 29.5387 73.7887 23.625 64.0387 22.9613C55.0275 22.3463 34.9613 22.35 25.965 22.9613C16.2225 23.625 15.075 29.5125 15 45C15.075 60.4613 16.2113 66.375 25.9613 67.0387C34.9575 67.65 55.0238 67.6538 64.035 67.0387C73.7775 66.375 74.925 60.4875 75 45Z" fill="white"/>
</g>
<defs>
<clipPath id="clip0_2_189">
<rect width="90" height="90" fill="white"/>
</clipPath>
</defs>
</svg>
